HIERARCHY
ROOT Hips
{
  OFFSET 279.157 85.6768 304.565
  CHANNELS 6 Xposition Yposition Zposition Zrotation Xrotation Yrotation
  JOINT LeftUpLeg
  {
    OFFSET 8.64259 1.95398 -2.38835
    CHANNELS 3 Zrotation Xrotation Yrotation
    JOINT LeftLeg
    {
      OFFSET 43.7702 0 0
      CHANNELS 3 Zrotation Xrotation Yrotation
      JOINT LeftFoot
      {
        OFFSET 40.6238 0 0
        CHANNELS 3 Zrotation Xrotation Yrotation
        JOINT LeftToeBase
        {
          OFFSET 12.7242 0 0
          CHANNELS 3 Zrotation Xrotation Yrotation
          End Site
          {
            OFFSET 0 0 0
          }
        }
      }
    }
  }
  JOINT RightUpLeg
  {
    OFFSET -8.2249 1.95398 -2.59336
    CHANNELS 3 Zrotation Xrotation Yrotation
    JOINT RightLeg
    {
      OFFSET 43.5653 0 0
      CHANNELS 3 Zrotation Xrotation Yrotation
      JOINT RightFoot
      {
        OFFSET 40.6238 0 0
        CHANNELS 3 Zrotation Xrotation Yrotation
        JOINT RightToeBase
        {
          OFFSET 12.7242 0 0
          CHANNELS 3 Zrotation Xrotation Yrotation
          End Site
          {
            OFFSET 0 0 0
          }
        }
      }
    }
  }
  JOINT Spine
  {
    OFFSET 0.165834 0.87714 6.61349
    CHANNELS 3 Zrotation Xrotation Yrotation
    JOINT Spine1
    {
      OFFSET 7.38963 1.71661e-005 0
      CHANNELS 3 Zrotation Xrotation Yrotation
      JOINT Spine2
      {
        OFFSET 11.9445 1.14441e-005 0
        CHANNELS 3 Zrotation Xrotation Yrotation
        JOINT Spine3
        {
          OFFSET 14.7254 4.19617e-005 0
          CHANNELS 3 Zrotation Xrotation Yrotation
          JOINT Spine4
          {
            OFFSET 10.9679 0 0
            CHANNELS 3 Zrotation Xrotation Yrotation
            JOINT RightShoulder
            {
              OFFSET 2.46616 -1.6653 3.69651
              CHANNELS 3 Zrotation Xrotation Yrotation
              JOINT RightArm
              {
                OFFSET 13.0012 0 0
                CHANNELS 3 Zrotation Xrotation Yrotation
                JOINT RightForeArm
                {
                  OFFSET 28.7848 1.52588e-005 0
                  CHANNELS 3 Zrotation Xrotation Yrotation
                  JOINT RightHand
                  {
                    OFFSET 26.5688 1.52588e-005 0
                    CHANNELS 3 Zrotation Xrotation Yrotation
                    End Site
                    {
                      OFFSET 0 0 0
                    }
                  }
                }
              }
            }
            JOINT LeftShoulder
            {
              OFFSET 2.38034 -1.29275 -3.7523
              CHANNELS 3 Zrotation Xrotation Yrotation
              JOINT LeftArm
              {
                OFFSET 16.3182 6.10351e-005 0
                CHANNELS 3 Zrotation Xrotation Yrotation
                JOINT LeftForeArm
                {
                  OFFSET 27.0901 0 0
                  CHANNELS 3 Zrotation Xrotation Yrotation
                  JOINT LeftHand
                  {
                    OFFSET 24.5451 1.52588e-005 0
                    CHANNELS 3 Zrotation Xrotation Yrotation
                    End Site
                    {
                      OFFSET 0 0 0
                    }
                  }
                }
              }
            }
            JOINT Neck
            {
              OFFSET 5.0226 -0.0266342 0
              CHANNELS 3 Zrotation Xrotation Yrotation
              JOINT Head
              {
                OFFSET 6.69364 2.86102e-005 0
                CHANNELS 3 Zrotation Xrotation Yrotation
                End Site
                {
                  OFFSET 0 0 0
                }
              }
            }
          }
        }
      }
    }
  }
}
MOTION
Frames:	16
Frame Time:	0.0416667
-20.8809 101.903 57.0855 102.049 26.9693 84.4497 -174.863 -5.69114 87.6498 -11.8691 -1.61985 -0.00719126 70.1703 5.74874 -0.983505 12.2415 -12.9714 8.66557 174.228 -4.91146 88.8895 -13.8182 -17.6512 -1.83069 65.1982 -3.12916 0.516741 24.5961 0.777103 3.93525 0.101892 7.92048 -90.0335 11.033 0.18714 -0.0846334 -0.637965 0.183307 -0.09281 -23.1732 0.203972 -0.0244646 -3.16057 0.203958 -0.0244711 86.3743 -30.5473 -113.601 22.7287 -9.08359 -28.2933 11.0977 13.7856 -41.7494 -11.7691 2.03471 -16.4415 -91.0828 -53.5482 77.909 -15.2953 6.25827 -16.3642 -30.0405 -31.07 -57.5887 -6.10961 0.160057 -12.0394 -8.40521 -6.26665 -6.9663 -4.18337 -5.81485 0.594219 
-20.891 101.892 57.0153 101.863 27.513 84.474 -174.89 -5.35096 87.6906 -11.9773 -1.27676 -7.90666e-005 69.3032 5.14004 -1.0159 14.2817 -11.2495 7.90097 174.062 -4.71639 88.7893 -13.843 -17.3687 -1.64892 65.3329 -3.24258 0.462713 24.7247 0.763514 3.78353 0.131267 7.90591 -90.0651 11.0622 0.231131 -0.151767 -0.608706 0.224229 -0.161795 -23.144 0.266044 -0.0752822 -3.13135 0.266077 -0.0752865 86.7172 -30.0226 -113.187 23.4282 -8.45157 -28.0099 9.68851 10.4597 -41.1748 -10.8576 1.99349 -18.4579 -91.4993 -54.1232 77.4398 -14.8126 6.69315 -16.8271 -28.5022 -30.9062 -56.6415 -5.70551 0.109322 -11.2448 -8.35509 -2.1575 -4.80486 -4.28223 -1.87273 1.81087 
-20.9554 101.861 56.9183 101.886 28.4253 84.4251 -174.756 -5.01885 87.8289 -12.5308 -0.191699 -0.108321 70.1395 5.57091 -1.31584 13.3034 -12.3577 8.9081 173.791 -4.80283 88.6884 -13.6597 -17.0461 -1.3259 65.6178 -3.46925 0.466118 24.4729 1.02701 2.68375 0.148322 7.906 -90.0815 11.0621 0.257536 -0.186911 -0.608864 0.249072 -0.198075 -23.1442 0.301792 -0.100876 -3.13153 0.301811 -0.100868 86.4061 -30.1655 -113.722 23.4471 -7.72304 -26.846 10.2307 11.3229 -41.7128 -11.1885 2.08008 -18.3695 -91.9178 -54.4597 76.9201 -14.6666 7.20746 -17.1014 -28.8216 -31.1542 -56.797 -3.98477 -0.0038197 -10.2199 -7.9355 0.707893 -3.99577 -4.8576 0.919523 2.84678 
-21.0098 101.836 56.7014 101.488 29.2249 84.3568 -174.971 -4.58893 87.5281 -12.4439 0.225519 -0.108271 69.285 5.16602 -1.05574 15.1346 -10.6769 7.91187 173.448 -4.30112 88.3326 -13.9623 -16.7408 -1.10669 65.8726 -3.59041 0.375094 24.5293 1.08558 2.22681 0.169329 7.87783 -90.065 11.1184 0.306896 -0.15906 -0.552545 0.299612 -0.172422 -23.088 0.340514 -0.059474 -3.07533 0.340521 -0.059472 86.4043 -30.3876 -113.619 23.3408 -7.26316 -26.3482 10.2206 11.1098 -41.8058 -11.4512 2.10088 -18.3549 -91.9003 -54.2988 76.9087 -15.4557 7.67179 -17.4196 -28.3763 -31.3031 -56.4707 -3.92578 -0.0033938 -10.6878 -7.29676 2.70588 -3.56124 -5.02125 2.87812 3.70082 
-20.9554 101.813 56.4358 101.163 30.0559 84.4883 -174.978 -4.12875 87.4947 -12.8229 0.770779 -0.149074 69.5749 5.33081 -1.04274 14.8762 -10.7257 7.61815 173.463 -4.15649 88.2818 -13.7337 -15.1905 -1.07054 65.4459 -3.29351 0.871993 25.8357 0.427438 3.73266 0.19721 7.86503 -90.1032 11.1442 0.344599 -0.238986 -0.526733 0.333763 -0.253931 -23.0622 0.400507 -0.124363 -3.04955 0.400512 -0.124375 86.4958 -30.1944 -113.535 23.3122 -6.5016 -26.002 9.77283 10.3997 -41.6061 -10.5067 2.08038 -19.5886 -92.0213 -54.7707 76.8442 -15.7994 7.97745 -18.1373 -27.9249 -31.2829 -55.916 -3.23317 -0.0485794 -9.95008 -6.52579 3.89064 -2.52962 -5.3785 3.98087 3.85405 
-20.9277 101.803 56.0206 101.396 30.794 84.1069 -175.073 -4.52448 87.2286 -12.5123 1.48537 -0.221019 69.4758 5.47208 -0.930241 14.6881 -10.7086 7.28418 173.201 -4.3764 87.8856 -13.9636 -14.706 -1.07653 65.7812 -3.42614 0.798777 25.7876 0.44205 3.73242 0.212421 7.90577 -90.0959 11.0627 0.378257 -0.22727 -0.608201 0.367891 -0.243703 -23.1438 0.429109 -0.103074 -3.1311 0.429082 -0.103081 86.2728 -30.1069 -114.007 23.2786 -6.14408 -25.2903 10.7183 12.3065 -42.1191 -12.2419 2.27528 -18.437 -91.8825 -54.7629 77.0386 -15.8801 8.7085 -18.9869 -27.7484 -31.4674 -55.1667 -5.86794 0.148291 -12.2612 -6.09013 4.56732 -1.92736 -5.23284 4.62196 3.6373 
-20.865 101.801 55.5129 101.219 31.7238 83.9965 -175.038 -4.54797 87.0531 -12.4346 2.46585 -0.437283 69.7284 5.75925 -1.01991 15.082 -10.8375 8.20536 172.929 -4.49883 87.5464 -13.7857 -14.1249 -0.981599 65.9089 -3.45503 0.883771 26.0649 0.438206 3.20215 0.207922 7.87799 -90.0867 11.1183 0.373642 -0.208929 -0.552659 0.364107 -0.225178 -23.0882 0.419161 -0.0869695 -3.07556 0.419175 -0.086973 86.4587 -30.173 -113.616 23.4988 -5.59272 -25.1307 9.95396 9.86821 -41.8176 -11.5891 2.20672 -19.6004 -91.7986 -54.7796 77.161 -15.7893 9.28328 -19.5048 -27.644 -31.6179 -54.7591 -5.0559 0.0756204 -11.4639 -5.55482 4.80974 -1.40251 -5.61299 4.82828 3.08543 
-20.7104 101.788 54.8472 101.027 32.604 83.9146 -175.314 -4.77837 86.6614 -12.0774 2.7274 -0.330767 70.0084 6.02259 -1.40653 13.5421 -11.4296 7.19868 172.691 -4.7773 87.185 -13.4241 -13.3601 -0.959661 65.9106 -3.37575 0.899518 26.4498 0.275728 3.48179 0.199158 7.86611 -90.0965 11.142 0.351586 -0.226426 -0.528942 0.341285 -0.241687 -23.0644 0.403388 -0.110287 -3.05178 0.40338 -0.110298 86.5472 -30.0648 -113.497 23.5654 -4.41822 -25.0033 7.26382 3.48238 -41.4549 -9.55629 1.65853 -20.7527 -91.771 -54.774 77.1986 -15.9307 9.77777 -20.0875 -27.4592 -32.0034 -54.3974 -5.22094 0.0873285 -11.5138 -5.08168 4.83979 -0.844381 -5.82533 4.81196 2.79309 
-20.614 101.757 54.0732 100.953 33.626 83.6028 -175.548 -4.99542 86.0778 -12.042 3.40762 -0.391012 70.1619 6.27206 -1.13651 14.6847 -11.0047 7.97384 172.263 -5.09854 86.5647 -13.1804 -12.9888 -0.92185 66.2684 -3.5757 0.996845 26.664 0.338414 2.60724 0.175569 7.8404 -90.1063 11.1934 0.300057 -0.241104 -0.477562 0.289172 -0.254086 -23.0129 0.358656 -0.139779 -3.00028 0.358656 -0.139777 86.8311 -29.6564 -113.139 23.8061 -5.65409 -24.6893 13.2441 17.0641 -43.0112 -13.3242 2.56642 -17.6419 -91.8034 -54.8903 77.1787 -16.3131 9.46631 -20.4239 -26.4753 -31.2334 -53.6189 -5.28092 0.0806154 -11.1034 -5.25959 4.77845 -0.276099 -5.41742 4.71111 2.62839 
-20.4037 101.664 53.3493 100.715 33.8023 83.7598 -175.373 -5.03686 86.03 -12.3401 3.77407 -0.68262 70.6567 6.57597 -1.12664 14.4142 -11.0845 7.74513 172.312 -5.06925 86.4358 -13.6049 -12.3654 -1.11427 66.6118 -3.77232 1.06102 27.0803 0.16799 2.86543 0.25219 7.82273 -90.1258 11.229 0.443437 -0.294074 -0.44191 0.430081 -0.313312 -22.9776 0.51132 -0.147205 -2.96494 0.511306 -0.147214 86.8538 -29.8955 -112.982 23.8547 -4.35131 -24.3001 9.98969 9.58174 -41.9712 -11.2109 2.19062 -19.9828 -91.6741 -54.256 77.2206 -16.8572 10.1648 -20.6722 -26.9278 -31.3457 -53.918 -3.10242 -0.0577235 -9.89768 -4.86542 4.50019 -0.302969 -5.60329 4.43917 2.36999 
-20.3063 101.464 52.5145 100.825 35.0143 83.4371 -175.149 -4.74382 85.8385 -13.7093 5.16874 -1.07612 71.5366 7.28401 -0.671429 13.9427 -11.0684 6.98318 172.125 -4.64725 86.0633 -15.2994 -11.1979 -1.19028 67.4271 -4.34586 0.979933 28.3831 -0.223372 2.72246 0.197304 7.82797 -90.1396 11.2183 0.327754 -0.310203 -0.452599 0.313796 -0.324337 -22.988 0.405837 -0.197354 -2.97531 0.405847 -0.197356 86.7636 -29.9347 -113.139 23.8201 -3.5699 -23.769 9.20603 8.82224 -42.2622 -10.8829 2.07993 -20.0172 -91.6734 -54.2392 77.2179 -17.0811 11.0149 -21.3789 -26.9036 -31.7433 -53.5454 -2.97631 -0.0570774 -10.6096 -4.82388 4.20604 -0.248813 -5.34554 4.15573 2.03426 
-20.1406 101.049 51.8107 101.242 35.761 83.0329 -174.569 -4.01803 85.9651 -16.6382 6.22054 -1.63125 73.4223 8.04839 -0.916415 14.5296 -10.9067 7.50232 172.554 -3.58661 86.1362 -18.942 -9.35961 -1.57116 68.7009 -5.46928 1.00786 30.5113 -0.923865 2.96863 0.207514 7.86002 -90.1543 11.1542 0.341429 -0.340523 -0.516751 0.326119 -0.355229 -23.0521 0.427967 -0.222169 -3.03943 0.427997 -0.222165 86.9292 -30.0173 -112.778 23.8307 -3.0336 -23.3431 9.33438 8.99336 -42.4667 -10.8462 2.0691 -19.7019 -91.694 -53.6707 77.0606 -18.3445 11.1956 -22.1128 -25.8488 -31.7199 -52.5236 -3.25972 -0.0462253 -10.0891 -4.88423 3.8569 -0.808759 -5.52163 3.85073 2.2815 
-20.0686 100.556 51.2176 101.474 36.0323 82.2848 -174.288 -3.32172 85.5212 -19.2201 6.72605 -2.18317 75.1627 8.79592 -0.892743 14.0513 -11.1688 7.37288 173.625 -0.143146 85.9701 -26.3345 -8.51683 -2.41768 69.3984 -6.28254 0.0942151 31.6884 -1.17675 1.80709 0.242188 7.94419 -90.0673 10.9859 0.451015 -0.176807 -0.684985 0.44279 -0.196499 -23.2208 0.483332 -0.0330746 -3.20811 0.483304 -0.0330916 86.8087 -30.4681 -112.802 23.4104 -2.43565 -23.2507 10.6272 10.2081 -41.9537 -12.3656 2.25843 -18.8587 -91.1866 -52.1068 77.4405 -20.021 11.1 -23.6674 -24.7312 -31.2777 -51.595 -1.96561 -0.10842 -9.41074 -3.8554 3.56489 -2.81207 -5.9316 3.72381 3.58827 
-19.7741 100.366 50.6541 101.79 35.7996 81.6246 -174.21 -4.02975 85.0645 -19.2851 6.29103 -2.52238 75.5369 9.02939 -1.12977 14.5387 -10.6737 6.96882 175.566 4.64972 86.637 -36.0233 -8.95739 -3.88449 69.8902 -6.47207 -0.994996 27.4866 -0.0336475 3.35685 0.292902 8.00945 -90.0157 10.8553 0.575957 -0.0852181 -0.815521 0.571652 -0.110494 -23.3517 0.574957 0.0918308 -3.33905 0.574946 0.0918242 86.7114 -30.4095 -113.017 23.0554 -2.2062 -23.3508 10.9086 10.0727 -41.981 -11.6376 2.2785 -19.8154 -91.2835 -52.377 77.3605 -19.2301 10.9762 -24.698 -24.74 -31.1749 -51.6228 -0.988466 -0.145767 -8.93797 -3.84151 3.48323 -2.28537 -5.78162 3.63659 2.21313 
-19.318 100.366 49.9916 101.826 36.0556 81.6751 -174.526 -4.72889 84.7746 -18.9084 6.40518 -2.21895 76.1828 9.77434 -0.546778 13.1342 -11.5261 6.81899 177.058 8.93374 87.874 -42.474 -11.3438 -4.48244 70.6561 -7.0221 -2.27059 24.6806 0.777918 3.80245 0.275031 8.03777 -90.0131 10.7986 0.541632 -0.0765872 -0.87223 0.537727 -0.100351 -23.4083 0.539604 0.0897429 -3.3956 0.539606 0.0897373 86.3713 -30.6802 -113.544 22.7918 -1.50949 -23.3746 9.7479 8.64734 -42.0634 -9.52756 2.01242 -20.8324 -91.0928 -52.0883 77.5731 -19.4841 10.5475 -25.8868 -23.828 -31.3502 -50.5403 -0.258307 -0.160257 -8.1556 -3.8322 3.52525 -3.08752 -6.17111 3.74006 2.71354 
-18.4719 100.358 49.2641 101.199 36.1874 83.0373 -174.473 -4.84925 85.4205 -19.2199 5.93043 -1.74679 78.1089 10.6398 -1.23263 11.3976 -13.1457 7.80276 178.309 12.1117 90.0245 -42.9543 -13.2802 -4.1218 70.3676 -6.74869 -1.92329 24.8929 0.984536 2.12527 0.295766 8.01342 -90.129 10.8478 0.529329 -0.305926 -0.823089 0.515382 -0.328937 -23.3591 0.596825 -0.132687 -3.34642 0.596816 -0.132696 86.2795 -30.7644 -113.68 22.7348 -1.09879 -23.5334 9.58953 7.48083 -42.2011 -11.5355 2.1343 -20.0311 -90.8724 -51.682 77.8047 -20.2236 10.2454 -26.6373 -23.2749 -31.4416 -49.9567 -0.382599 -0.156301 -8.15059 -3.54489 3.54519 -3.49736 -6.89935 3.78984 2.81365 
